REM DIRINDEX 1\5,1\2\6,1\2\7,1\3\8,1\3\9,1\4\10,1\4\11,1\4\12
REM DIRNAME folder01,folder02,folder03,folder04,folder05,folder06,folder07,folder08,folder09,folder10,folder11,folder12
TITLE ""
FILE "EJE_DB3000_5th_4B_33.mp3" MP3
  TRACK 01 AUDIO
    TITLE "0:"
    INDEX 01 00:00:00
  TRACK 02 AUDIO
    TITLE "10:cjc026_09450"
    INDEX 01 00:00:05
  TRACK 03 AUDIO
    TITLE "0:"
    INDEX 01 00:00:74
  TRACK 04 AUDIO
    TITLE "11:cjc026_09451"
    INDEX 01 00:01:24
  TRACK 05 AUDIO
    TITLE "0:"
    INDEX 01 00:02:49
  TRACK 06 AUDIO
    TITLE "12:cjc026_09452"
    INDEX 01 00:03:00
  TRACK 07 AUDIO
    TITLE "0:"
    INDEX 01 00:03:68
  TRACK 08 AUDIO
    TITLE "10:cjc026_09453"
    INDEX 01 00:04:19
  TRACK 09 AUDIO
    TITLE "0:"
    INDEX 01 00:05:10
  TRACK 10 AUDIO
    TITLE "11:cjc026_09454"
    INDEX 01 00:05:36
  TRACK 11 AUDIO
    TITLE "0:"
    INDEX 01 00:06:51
  TRACK 12 AUDIO
    TITLE "12:cjc026_09455"
    INDEX 01 00:07:00
  TRACK 13 AUDIO
    TITLE "0:"
    INDEX 01 00:07:66
  TRACK 14 AUDIO
    TITLE "10:cjc026_09456"
    INDEX 01 00:08:17
  TRACK 15 AUDIO
    TITLE "0:"
    INDEX 01 00:09:08
  TRACK 16 AUDIO
    TITLE "11:cjc026_09457"
    INDEX 01 00:09:36
  TRACK 17 AUDIO
    TITLE "0:"
    INDEX 01 00:10:29
  TRACK 18 AUDIO
    TITLE "12:cjc026_09458"
    INDEX 01 00:10:55
  TRACK 19 AUDIO
    TITLE "0:"
    INDEX 01 00:11:46
  TRACK 20 AUDIO
    TITLE "10:cjc026_09459"
    INDEX 01 00:11:74
  TRACK 21 AUDIO
    TITLE "0:"
    INDEX 01 00:13:00
  TRACK 22 AUDIO
    TITLE "11:cjc026_09460"
    INDEX 01 00:13:28
  TRACK 23 AUDIO
    TITLE "0:"
    INDEX 01 00:14:45
  TRACK 24 AUDIO
    TITLE "12:cjc026_09461"
    INDEX 01 00:14:70
  TRACK 25 AUDIO
    TITLE "0:"
    INDEX 01 00:15:72
  TRACK 26 AUDIO
    TITLE "10:cjc026_09462"
    INDEX 01 00:16:22
  TRACK 27 AUDIO
    TITLE "0:"
    INDEX 01 00:17:12
  TRACK 28 AUDIO
    TITLE "11:cjc026_09463"
    INDEX 01 00:17:41
  TRACK 29 AUDIO
    TITLE "0:"
    INDEX 01 00:18:48
  TRACK 30 AUDIO
    TITLE "12:cjc026_09464"
    INDEX 01 00:19:01
  TRACK 31 AUDIO
    TITLE "0:"
    INDEX 01 00:19:65
  TRACK 32 AUDIO
    TITLE "10:cjc026_09465"
    INDEX 01 00:20:20
  TRACK 33 AUDIO
    TITLE "0:"
    INDEX 01 00:21:13
  TRACK 34 AUDIO
    TITLE "11:cjc026_09466"
    INDEX 01 00:21:41
  TRACK 35 AUDIO
    TITLE "0:"
    INDEX 01 00:22:38
  TRACK 36 AUDIO
    TITLE "12:cjc026_09467"
    INDEX 01 00:22:66
  TRACK 37 AUDIO
    TITLE "0:"
    INDEX 01 00:23:59
  TRACK 38 AUDIO
    TITLE "10:cjc026_09468"
    INDEX 01 00:24:10
  TRACK 39 AUDIO
    TITLE "0:"
    INDEX 01 00:25:11
  TRACK 40 AUDIO
    TITLE "11:cjc026_09469"
    INDEX 01 00:25:39
  TRACK 41 AUDIO
    TITLE "0:"
    INDEX 01 00:26:73
  TRACK 42 AUDIO
    TITLE "12:cjc026_09470"
    INDEX 01 00:27:24
  TRACK 43 AUDIO
    TITLE "0:"
    INDEX 01 00:28:25
  TRACK 44 AUDIO
    TITLE "10:cjc026_09471"
    INDEX 01 00:28:53
  TRACK 45 AUDIO
    TITLE "0:"
    INDEX 01 00:29:54
  TRACK 46 AUDIO
    TITLE "11:cjc026_09472"
    INDEX 01 00:30:06
  TRACK 47 AUDIO
    TITLE "0:"
    INDEX 01 00:31:24
  TRACK 48 AUDIO
    TITLE "12:cjc026_09473"
    INDEX 01 00:31:51
  TRACK 49 AUDIO
    TITLE "0:"
    INDEX 01 00:32:54
  TRACK 50 AUDIO
    TITLE "10:cjc026_09474"
    INDEX 01 00:33:05
  TRACK 51 AUDIO
    TITLE "0:"
    INDEX 01 00:35:12
  TRACK 52 AUDIO
    TITLE "11:cjc026_09475"
    INDEX 01 00:35:37
  TRACK 53 AUDIO
    TITLE "0:"
    INDEX 01 00:36:54
  TRACK 54 AUDIO
    TITLE "12:cjc026_09476"
    INDEX 01 00:37:03
  TRACK 55 AUDIO
    TITLE "0:"
    INDEX 01 00:39:11
  TRACK 56 AUDIO
    TITLE "10:cjc026_09477"
    INDEX 01 00:39:35
  TRACK 57 AUDIO
    TITLE "0:"
    INDEX 01 00:40:28
  TRACK 58 AUDIO
    TITLE "11:cjc026_09478"
    INDEX 01 00:40:54
  TRACK 59 AUDIO
    TITLE "0:"
    INDEX 01 00:41:53
  TRACK 60 AUDIO
    TITLE "12:cjc026_09479"
    INDEX 01 00:42:04
  TRACK 61 AUDIO
    TITLE "0:"
    INDEX 01 00:42:72
  TRACK 62 AUDIO
    TITLE "10:cjc026_09480"
    INDEX 01 00:43:23
  TRACK 63 AUDIO
    TITLE "0:"
    INDEX 01 00:44:26
  TRACK 64 AUDIO
    TITLE "11:cjc026_09481"
    INDEX 01 00:44:52
  TRACK 65 AUDIO
    TITLE "0:"
    INDEX 01 00:45:43
  TRACK 66 AUDIO
    TITLE "12:cjc026_09482"
    INDEX 01 00:45:69
  TRACK 67 AUDIO
    TITLE "0:"
    INDEX 01 00:46:70
  TRACK 68 AUDIO
    TITLE "10:cjc026_09483"
    INDEX 01 00:47:21
  TRACK 69 AUDIO
    TITLE "0:"
    INDEX 01 00:48:06
  TRACK 70 AUDIO
    TITLE "11:cjc026_09484"
    INDEX 01 00:48:34
  TRACK 71 AUDIO
    TITLE "0:"
    INDEX 01 00:49:37
  TRACK 72 AUDIO
    TITLE "12:cjc026_09485"
    INDEX 01 00:49:63
  TRACK 73 AUDIO
    TITLE "0:"
    INDEX 01 00:50:46
  TRACK 74 AUDIO
    TITLE "10:cjc026_09486"
    INDEX 01 00:50:74
  TRACK 75 AUDIO
    TITLE "0:"
    INDEX 01 00:52:00
  TRACK 76 AUDIO
    TITLE "11:cjc026_09487"
    INDEX 01 00:52:30
  TRACK 77 AUDIO
    TITLE "0:"
    INDEX 01 00:53:35
  TRACK 78 AUDIO
    TITLE "12:cjc026_09488"
    INDEX 01 00:53:60
  TRACK 79 AUDIO
    TITLE "0:"
    INDEX 01 00:54:62
  TRACK 80 AUDIO
    TITLE "10:cjc026_09489"
    INDEX 01 00:55:14
  TRACK 81 AUDIO
    TITLE "0:"
    INDEX 01 00:56:06
  TRACK 82 AUDIO
    TITLE "11:cjc026_09490"
    INDEX 01 00:56:31
  TRACK 83 AUDIO
    TITLE "0:"
    INDEX 01 00:57:29
  TRACK 84 AUDIO
    TITLE "12:cjc026_09491"
    INDEX 01 00:57:54
  TRACK 85 AUDIO
    TITLE "0:"
    INDEX 01 00:58:44
